<svg width="96" height="95" viewBox="0 0 96 95" fill="none" xmlns="http://www.w3.org/2000/svg">
<path d="M24.2499 42.5521C24.2499 37.6333 28.2373 33.6458 33.1561 33.6458C38.0749 33.6458 42.0624 37.6333 42.0624 42.5521C42.0624 47.4707 38.0749 51.4583 33.1561 51.4583C28.2373 51.4583 24.2499 47.4707 24.2499 42.5521ZM33.1561 39.5833C31.5165 39.5833 30.1874 40.9125 30.1874 42.5521C30.1874 44.1916 31.5165 45.5208 33.1561 45.5208C34.7957 45.5208 36.1249 44.1916 36.1249 42.5521C36.1249 40.9125 34.7957 39.5833 33.1561 39.5833ZM33.1561 55.4167C28.2373 55.4167 24.2499 59.4043 24.2499 64.3229C24.2499 69.2415 28.2373 73.2292 33.1561 73.2292C38.0749 73.2292 42.0624 69.2415 42.0624 64.3229C42.0624 59.4043 38.0749 55.4167 33.1561 55.4167ZM30.1874 64.3229C30.1874 62.6834 31.5165 61.3542 33.1561 61.3542C34.7957 61.3542 36.1249 62.6834 36.1249 64.3229C36.1249 65.9625 34.7957 67.2917 33.1561 67.2917C31.5165 67.2917 30.1874 65.9625 30.1874 64.3229ZM47.9999 42.5521C47.9999 40.9125 49.3291 39.5833 50.9686 39.5833H68.7811C70.4207 39.5833 71.7499 40.9125 71.7499 42.5521C71.7499 44.1916 70.4207 45.5208 68.7811 45.5208H50.9686C49.3291 45.5208 47.9999 44.1916 47.9999 42.5521ZM50.9686 61.3542C49.3291 61.3542 47.9999 62.6834 47.9999 64.3229C47.9999 65.9625 49.3291 67.2917 50.9686 67.2917H68.7811C70.4207 67.2917 71.7499 65.9625 71.7499 64.3229C71.7499 62.6834 70.4207 61.3542 68.7811 61.3542H50.9686ZM24.2499 26.7188C24.2499 25.0792 25.579 23.75 27.2186 23.75H68.7811C70.4207 23.75 71.7499 25.0792 71.7499 26.7188C71.7499 28.3583 70.4207 29.6875 68.7811 29.6875H27.2186C25.579 29.6875 24.2499 28.3583 24.2499 26.7188ZM25.2395 11.875C18.1345 11.875 12.3749 17.6347 12.3749 24.7396V70.2604C12.3749 77.3652 18.1345 83.125 25.2395 83.125H70.7603C77.8651 83.125 83.6249 77.3652 83.6249 70.2604V24.7396C83.6249 17.6347 77.8651 11.875 70.7603 11.875H25.2395ZM18.3124 24.7396C18.3124 20.9139 21.4137 17.8125 25.2395 17.8125H70.7603C74.586 17.8125 77.6874 20.9139 77.6874 24.7396V70.2604C77.6874 74.0861 74.586 77.1875 70.7603 77.1875H25.2395C21.4137 77.1875 18.3124 74.0861 18.3124 70.2604V24.7396Z" fill="#E94E1B"/>
</svg>
