<svg width="88" height="87" viewBox="0 0 88 87" fill="none" xmlns="http://www.w3.org/2000/svg">
<path d="M26.4272 10.9167C29.4419 8.56986 33.3857 7.27124 37.3052 7.27124C39.6484 7.27124 41.5465 8.07635 42.9842 9.35514C43.3728 9.70122 43.7186 10.0729 44.0256 10.459C44.3327 10.0729 44.6781 9.70122 45.0671 9.35514C46.5044 8.07635 48.4025 7.27124 50.7457 7.27124C54.6654 7.27124 58.6094 8.56986 61.6239 10.9167C63.9693 12.7426 65.8079 15.2595 66.5282 18.304C68.0514 18.5558 69.4046 19.3322 70.499 20.3591C72.2419 21.9945 73.4813 24.3572 74.2618 26.7889C75.0542 29.2573 75.4508 32.0322 75.3311 34.6958C75.2699 36.0594 75.0701 37.4491 74.6877 38.7799C74.7674 38.8143 74.8468 38.8502 74.9258 38.8872C76.2678 39.5201 77.3524 40.5108 78.1684 41.8256C79.7094 44.3076 80.2517 47.8841 80.2517 52.4403C80.2517 57.6766 78.2503 61.2324 75.6759 63.4408C74.182 64.7222 72.5333 65.5164 71.0736 65.9406C70.5679 68.4512 69.3031 71.2805 67.3793 73.6875C64.7592 76.9656 60.6865 79.7359 55.2102 79.7359C50.8229 79.7359 47.3693 77.3096 45.1508 74.9835C44.7452 74.5579 44.3693 74.1247 44.0256 73.6937C43.6816 74.1247 43.3061 74.5579 42.9001 74.9835C40.6816 77.3096 37.228 79.7359 32.8408 79.7359C27.3646 79.7359 23.292 76.9656 20.6719 73.6875C18.7479 71.2805 17.4833 68.4512 16.9776 65.9406C15.5178 65.5164 13.8691 64.7222 12.3754 63.4408C9.80095 61.2324 7.79944 57.6766 7.79944 52.4403C7.79944 47.8841 8.34159 44.3076 9.88262 41.8256C10.6988 40.5108 11.7835 39.5201 13.1253 38.8872C13.2043 38.8502 13.2837 38.8143 13.3634 38.7799C12.981 37.4491 12.7814 36.0594 12.7201 34.6958C12.6004 32.0322 12.9969 29.2573 13.7892 26.7889C14.5698 24.3572 15.8091 21.9945 17.552 20.3591C18.6463 19.3322 19.9999 18.5558 21.523 18.304C22.2433 15.2595 24.0817 12.7426 26.4272 10.9167ZM29.7673 15.2074C27.7889 16.7475 26.6305 18.7991 26.6305 21.1612C26.6305 22.0352 26.2103 22.856 25.5011 23.3669C24.792 23.8779 23.8804 24.0168 23.0513 23.7402C22.5532 23.574 22.0291 23.6145 21.2727 24.3242C20.4345 25.1108 19.5811 26.536 18.9665 28.4508C18.3637 30.3288 18.0626 32.459 18.1521 34.4516C18.2428 36.4693 18.7226 38.1404 19.4777 39.274C19.6041 39.4639 19.7044 39.6658 19.7784 39.875H23.7009C29.1535 39.875 33.6195 44.0992 34.0052 49.4533C36.6768 50.522 38.5642 53.1342 38.5642 56.1875C38.5642 60.1917 35.3182 63.4375 31.3142 63.4375C27.3101 63.4375 24.0642 60.1917 24.0642 56.1875C24.0642 53.1653 25.9134 50.5749 28.5421 49.4863C28.1939 47.125 26.1591 45.3125 23.7009 45.3125H14.2759C14.2455 45.3125 14.2151 45.3121 14.1849 45.311C13.6438 46.5725 13.2369 48.7526 13.2369 52.4403C13.2369 56.1411 14.5838 58.1711 15.9158 59.3141C17.3776 60.5679 18.9823 60.8927 19.4472 60.8927C20.9488 60.8927 22.166 62.11 22.166 63.6115C22.166 65.1307 23.0062 67.8991 24.9193 70.2927C26.7637 72.6 29.3879 74.2984 32.8408 74.2984C35.1502 74.2984 37.2773 73.0006 38.9651 71.2309C39.7873 70.3689 40.4256 69.4735 40.8443 68.747C41.0542 68.3831 41.1898 68.0945 41.2645 67.9031L41.2833 67.8538V58.953C41.2829 58.9374 41.2829 58.9218 41.2829 58.9062C41.2829 58.8907 41.2829 58.8751 41.2833 58.8595V33.5312H38.0371C36.9616 36.1882 34.3568 38.0625 31.3142 38.0625C27.3101 38.0625 24.0642 34.8166 24.0642 30.8125C24.0642 26.8084 27.3101 23.5625 31.3142 23.5625C34.3568 23.5625 36.9616 25.4368 38.0371 28.0937H41.2833V18.9355L41.2826 18.8944C41.2815 18.853 41.2793 18.7829 41.2743 18.6882C41.2641 18.4981 41.2427 18.2137 41.1996 17.8674C41.1115 17.1609 40.9393 16.2672 40.6192 15.4123C40.2944 14.5461 39.8721 13.8645 39.3697 13.4176C38.9238 13.0207 38.3104 12.7087 37.3052 12.7087C34.528 12.7087 31.7752 13.6444 29.7673 15.2074ZM46.7679 61.625V67.8538L46.7864 67.9031C46.8615 68.0945 46.997 68.3831 47.2066 68.747C47.6252 69.4735 48.2636 70.3689 49.0858 71.2309C50.7739 73.0006 52.9011 74.2984 55.2102 74.2984C58.663 74.2984 61.2875 72.6 63.1319 70.2927C65.0448 67.8991 65.8851 65.1307 65.8851 63.6115C65.8851 62.11 67.1024 60.8927 68.6039 60.8927C69.0689 60.8927 70.6734 60.5679 72.1353 59.3141C73.4671 58.1711 74.8142 56.1411 74.8142 52.4403C74.8142 48.0599 74.24 45.8069 73.5491 44.6937C73.2489 44.2105 72.9386 43.9618 72.6062 43.8052C72.2383 43.6316 71.6887 43.5 70.8361 43.5C69.8338 43.5 68.9127 42.9483 68.4393 42.0645C67.9662 41.1807 68.0177 40.1084 68.5734 39.274C69.3285 38.1404 69.8084 36.4693 69.8991 34.4516C69.9886 32.459 69.6874 30.3288 69.0845 28.4508C68.4701 26.536 67.6168 25.1108 66.7783 24.3242C66.0221 23.6145 65.498 23.574 64.9999 23.7402C64.1708 24.0168 63.2592 23.8779 62.5501 23.3669C61.8407 22.856 61.4206 22.0352 61.4206 21.1612C61.4206 18.7991 60.262 16.7475 58.2838 15.2074C56.276 13.6444 53.5231 12.7087 50.7457 12.7087C49.7408 12.7087 49.1274 13.0207 48.6812 13.4176C48.1791 13.8645 47.7565 14.5461 47.432 15.4123C47.1119 16.2672 46.9398 17.1609 46.8513 17.8674C46.8082 18.2137 46.7872 18.4981 46.777 18.6882C46.7719 18.7829 46.7697 18.853 46.7687 18.8944L46.7679 18.9355V56.1875H49.0767C51.7795 56.1875 53.9704 53.9965 53.9704 51.2937V44.7854C51.3133 43.7099 49.4392 41.105 49.4392 38.0625C49.4392 34.0584 52.685 30.8125 56.6892 30.8125C60.6934 30.8125 63.9392 34.0584 63.9392 38.0625C63.9392 41.105 62.0647 43.7099 59.408 44.7854V51.2937C59.408 56.9995 54.7825 61.625 49.0767 61.625H46.7679ZM31.3142 29C30.3132 29 29.5017 29.8115 29.5017 30.8125C29.5017 31.8135 30.3132 32.625 31.3142 32.625C32.3152 32.625 33.1267 31.8135 33.1267 30.8125C33.1267 29.8115 32.3152 29 31.3142 29ZM29.5017 56.1875C29.5017 57.1884 30.3132 58 31.3142 58C32.3152 58 33.1267 57.1884 33.1267 56.1875C33.1267 55.1866 32.3152 54.375 31.3142 54.375C30.3132 54.375 29.5017 55.1866 29.5017 56.1875ZM54.8767 38.0625C54.8767 39.0634 55.688 39.875 56.6892 39.875C57.6901 39.875 58.5017 39.0634 58.5017 38.0625C58.5017 37.0616 57.6901 36.25 56.6892 36.25C55.688 36.25 54.8767 37.0616 54.8767 38.0625Z" fill="#E94E1B"/>
</svg>
