<svg width="96" height="95" viewBox="0 0 96 95" fill="none" xmlns="http://www.w3.org/2000/svg">
<path d="M29.7691 34.6961C31.1447 33.1822 33.3937 31.7498 36.6978 31.7498C41.2591 31.7498 44.1958 34.885 45.2261 38.3255C46.23 41.6767 45.6212 45.8274 42.774 48.6877C41.7955 49.671 40.6436 50.5604 39.6355 51.3386L39.4743 51.4633C38.3692 52.3175 37.3822 53.0918 36.5114 53.9598C35.4981 54.9708 34.6722 56.0755 34.1906 57.4788H42.6354C44.275 57.4788 45.6042 58.808 45.6042 60.4475C45.6042 62.0875 44.275 63.4163 42.6354 63.4163H30.7603C29.9729 63.4163 29.2177 63.1036 28.661 62.547C28.1043 61.9901 27.7915 61.2348 27.7915 60.4475C27.7916 55.5119 29.8657 52.2023 32.3185 49.7561C33.4918 48.586 34.7655 47.5984 35.8434 46.7655L35.8552 46.756C36.9874 45.8813 37.8657 45.2024 38.5657 44.499C39.6436 43.4164 40.0178 41.6292 39.5383 40.0289C39.0857 38.5178 38.0738 37.6873 36.6978 37.6873C35.3013 37.6873 34.5816 38.2288 34.1635 38.689C33.9285 38.9475 33.7678 39.2105 33.6698 39.4021C33.622 39.4954 33.5931 39.564 33.5805 39.5955L33.5763 39.6063C33.0658 41.138 31.4198 41.9843 29.8726 41.4994C28.308 41.0093 27.4371 39.3435 27.9273 37.7789L28.0646 37.3982C28.1381 37.2138 28.2425 36.9739 28.3842 36.6972C28.665 36.1485 29.1073 35.4245 29.7691 34.6961ZM52.5312 31.7501C54.1708 31.7501 55.5 33.0793 55.5 34.7189V45.6014H61.4375V34.7189C61.4375 33.0793 62.7667 31.7501 64.4063 31.7501C66.0458 31.7501 67.375 33.0793 67.375 34.7189V60.3308C67.375 61.9703 66.0458 63.2995 64.4063 63.2995C62.7667 63.2995 61.4375 61.9703 61.4375 60.3308V51.5389H52.5312C50.8917 51.5389 49.5625 50.2097 49.5625 48.5701V34.7189C49.5625 33.0793 50.8917 31.7501 52.5312 31.7501ZM87.1667 47.5833C87.1667 25.7221 69.4444 8 47.5833 8C25.7221 8 8 25.7221 8 47.5833C8 69.4444 25.7221 87.1667 47.5833 87.1667C69.4444 87.1667 87.1667 69.4444 87.1667 47.5833ZM13.9375 47.5833C13.9375 29.0013 29.0013 13.9375 47.5833 13.9375C66.1653 13.9375 81.2292 29.0013 81.2292 47.5833C81.2292 66.1653 66.1653 81.2292 47.5833 81.2292C29.0013 81.2292 13.9375 66.1653 13.9375 47.5833Z" fill="#E94E1B"/>
</svg>
