<svg width="88" height="87" viewBox="0 0 88 87" fill="none" xmlns="http://www.w3.org/2000/svg">
<path d="M54.2169 42.7569C55.6564 40.6101 56.4967 38.0262 56.4967 35.2483C56.4967 27.7934 50.4531 21.75 42.9983 21.75C35.5433 21.75 29.4999 27.7934 29.4999 35.2483C29.4999 42.7032 35.5433 48.7468 42.9983 48.7468C45.7761 48.7468 48.36 47.9065 50.5068 46.4671L59.4826 55.4426L59.7255 55.6525L59.7523 55.6724C60.78 56.4347 62.2373 56.351 63.1689 55.419C64.1937 54.3946 64.1937 52.7336 63.1689 51.7092L54.2169 42.7569ZM42.9983 26.9967C47.5556 26.9967 51.2499 30.6911 51.2499 35.2483C51.2499 39.8058 47.5556 43.5 42.9983 43.5C38.4409 43.5 34.7466 39.8058 34.7466 35.2483C34.7466 30.6911 38.4409 26.9967 42.9983 26.9967ZM24.0624 7.25C19.0573 7.25 14.9999 11.3074 14.9999 16.3125V70.6875C14.9999 75.6925 19.0573 79.75 24.0624 79.75H72.0936C73.5951 79.75 74.8124 78.5327 74.8124 77.0312C74.8124 75.5298 73.5951 74.3125 72.0936 74.3125H24.0624C22.0604 74.3125 20.4374 72.6896 20.4374 70.6875H72.0936C73.5951 70.6875 74.8124 69.4702 74.8124 67.9688V16.3125C74.8124 11.3074 70.7549 7.25 65.7499 7.25H24.0624ZM69.3749 65.25H20.4374V16.3125C20.4374 14.3105 22.0604 12.6875 24.0624 12.6875H65.7499C67.752 12.6875 69.3749 14.3105 69.3749 16.3125V65.25Z" fill="#E94E1B"/>
</svg>
