<svg width="76" height="64" viewBox="0 0 76 64" fill="none" xmlns="http://www.w3.org/2000/svg">
<path d="M38.9753 0C38.0944 0 37.3078 0.380908 36.791 0.977585L36.5764 1.13068C28.5172 -1.17249 19.3994 0.661088 13.0255 6.6314C7.35593 11.942 5.18064 19.2862 6.49957 26.1574L6.44312 26.2095L2.84589 29.5792C-0.282126 32.5089 -0.282126 37.2594 2.84589 40.1894C4.68354 41.9106 7.192 42.621 9.58305 42.3199C9.93539 43.5464 10.6255 44.7061 11.6534 45.6687C13.0506 46.9775 14.8354 47.7017 16.6616 47.8413C16.8104 49.5522 17.5835 51.2245 18.981 52.5333C20.4426 53.9026 22.3286 54.6318 24.2423 54.7214C24.3382 56.5138 25.1169 58.2797 26.5782 59.6487C29.4356 62.3251 33.9148 62.5568 37.0526 60.3435L38.5052 61.704C41.6486 64.6482 46.7445 64.6482 49.8879 61.704C51.2799 60.3998 52.0553 58.7378 52.2142 57.0343C54.0291 56.8887 55.8012 56.1656 57.1906 54.8639C58.5838 53.5593 59.3561 51.8945 59.5091 50.1903C61.3003 50.0323 63.0456 49.3109 64.4178 48.0255C65.4934 47.0182 66.1992 45.7955 66.5352 44.5059C68.8905 44.7695 71.3465 44.0545 73.1539 42.3617C76.2819 39.4316 76.2819 34.6815 73.1539 31.7514L70.0213 28.8171L70.6651 26.4557C72.0643 21.3209 71.3608 15.8819 68.6939 11.2106C64.7571 4.31421 57.0932 0.0177501 48.7623 0.0177501H42.7238C42.4664 0.00595185 42.2078 0 41.9478 0H38.9753ZM49.9653 17.5206L62.9828 29.7139L62.9975 29.7284L63.0475 29.7766L69.1547 35.4971C70.0743 36.3584 70.0743 37.7547 69.1547 38.616C68.2354 39.477 66.7449 39.477 65.8252 38.616L59.718 32.8951C58.6138 31.8609 56.8234 31.8609 55.7192 32.8951L55.658 32.9525C54.5534 33.9871 54.5534 35.664 55.658 36.6985L60.4189 41.1581C61.339 42.0201 61.339 43.4175 60.4189 44.2795C59.5801 45.065 58.2617 45.1358 57.3409 44.4868C56.2108 43.6903 54.6263 43.7984 53.6311 44.7401C52.6363 45.6815 52.5367 47.1667 53.3985 48.2172C54.1065 49.0806 54.0363 50.327 53.1918 51.1182C52.3401 51.9157 50.9951 51.976 50.0724 51.2957C48.9498 50.4677 47.3439 50.5545 46.3303 51.498C45.3163 52.4415 45.2137 53.9452 46.0905 55.002C46.8185 55.8793 46.7497 57.1516 45.8887 57.9583C44.954 58.8334 43.439 58.8334 42.5044 57.9583L41.1074 56.6495L41.5028 56.2789C44.6308 53.3492 44.6308 48.5988 41.5028 45.6687C40.0412 44.2997 38.1553 43.5702 36.2416 43.4805C36.1457 41.6885 35.367 39.9223 33.9058 38.5536C32.5085 37.2449 30.7237 36.5207 28.8976 36.3811C28.7488 34.6702 27.9756 32.9979 26.5782 31.6887C24.7405 29.9675 22.2321 29.2575 19.841 29.5587C19.4887 28.3317 18.7986 27.1725 17.7706 26.2095C16.1496 24.6911 14.0065 23.9596 11.8824 24.0151C11.3307 19.1515 13.0448 14.105 17.0245 10.3773C20.7235 6.91247 25.6386 5.28106 30.4828 5.48304L24.855 9.50269C21.007 12.2511 20.2657 17.4142 23.2002 21.028C26.1281 24.6336 31.6084 25.3329 35.4474 22.5907L42.5461 17.5206H49.9653ZM28.2594 13.7387L40.054 5.3145H41.9478C42.1338 5.3145 42.3183 5.31918 42.5014 5.32843C42.5513 5.33098 42.6017 5.33225 42.6521 5.33225H48.7623C55.0318 5.33225 60.782 8.56556 63.73 13.7291C65.5892 16.9861 66.1725 20.7389 65.3979 24.3411L53.3259 13.0161C52.7949 12.4984 52.0635 12.2061 51.2999 12.2061H41.599C40.9841 12.2061 40.3866 12.3954 39.8965 12.7453L32.0432 18.3547C30.6767 19.3306 28.7186 19.0807 27.6766 17.7975C26.6413 16.5225 26.9018 14.7084 28.2594 13.7387ZM15.6524 41.923C15.0214 41.3317 14.8235 40.4888 15.0587 39.7395C15.1662 39.3972 15.3641 39.0745 15.6524 38.8041L19.2497 35.4347C20.1691 34.5734 21.6598 34.5734 22.5792 35.4347C23.4881 36.2861 23.4985 37.6605 22.6103 38.5235L22.5782 38.5536L18.981 41.923L18.95 41.9524C18.6682 42.2065 18.3356 42.3822 17.9834 42.4789C17.1836 42.6993 16.2835 42.514 15.6524 41.923ZM13.8061 29.9884C14.0898 30.2651 14.2814 30.5946 14.3808 30.9419C14.5913 31.6781 14.3883 32.4965 13.7716 33.074L10.1744 36.4438C9.25496 37.3047 7.76431 37.3047 6.84492 36.4438C5.9255 35.5825 5.9255 34.1862 6.84492 33.3249L10.4422 29.9555C11.3616 29.0942 12.8522 29.0942 13.7716 29.9555L13.8061 29.9884ZM33.9066 55.9027C33.6179 56.1734 33.2725 56.359 32.9061 56.4596C32.1071 56.6789 31.2077 56.4933 30.5771 55.9027C29.9467 55.312 29.7486 54.4699 29.9829 53.7212C30.0902 53.3783 30.2883 53.0548 30.5771 52.7841L34.1745 49.4147C35.0938 48.5534 36.5847 48.5534 37.504 49.4147C38.4232 50.2757 38.4232 51.672 37.504 52.5333L33.9066 55.9027ZM26.3095 48.7876C26.0213 49.0576 25.6771 49.2429 25.3119 49.3435C24.5118 49.5642 23.6112 49.3789 22.98 48.7876C22.3487 48.1963 22.1509 47.3527 22.3865 46.6033C22.4901 46.2738 22.6776 45.9624 22.9489 45.6985L22.9809 45.6687L26.5782 42.2993L26.6092 42.2699C27.5309 41.4384 28.9979 41.4483 29.9067 42.2993C30.8263 43.1606 30.8263 44.5569 29.9067 45.4182L26.3095 48.7876Z" fill="#E94E1B"/>
</svg>
