<svg width="242" height="74" viewBox="0 0 242 74" fill="none" xmlns="http://www.w3.org/2000/svg">
<g clip-path="url(#clip0_1_13)">
<path d="M14.06 73.73L47.52 65.85L8.84 51.58L14.06 73.73Z" fill="black"/>
<path d="M73.73 59.68L59.68 0L0 14.06L7.43 45.61L56.53 63.73L73.73 59.68Z" fill="url(#paint0_linear_1_13)"/>
<path d="M45.35 41.99H39.83L33.13 33.64V41.99H28.38V16.23H33.13V31.68L39.46 23.59H45.13L37.73 32.68L45.35 41.99Z" fill="white"/>
<path d="M60.36 23.59H65.11V41.99H60.36V39.82C58.94 41.61 56.94 42.51 54.36 42.51C51.91 42.51 49.8 41.57 48.05 39.7C46.3 37.82 45.42 35.52 45.42 32.8C45.42 30.08 46.3 27.78 48.05 25.9C49.8 24.02 51.91 23.08 54.36 23.08C56.94 23.08 58.93 23.98 60.36 25.77V23.59ZM51.6 36.52C52.56 37.49 53.77 37.97 55.24 37.97C56.71 37.97 57.93 37.49 58.9 36.52C59.87 35.55 60.35 34.31 60.35 32.78C60.35 31.26 59.87 30.02 58.9 29.05C57.93 28.08 56.71 27.6 55.24 27.6C53.77 27.6 52.55 28.08 51.6 29.05C50.64 30.02 50.17 31.26 50.17 32.78C50.17 34.31 50.65 35.56 51.6 36.52Z" fill="white"/>
<path d="M74.16 26.75C74.6 25.57 75.33 24.69 76.35 24.1C77.37 23.51 78.5 23.22 79.75 23.22V28.52C78.3 28.35 77.01 28.64 75.87 29.4C74.73 30.16 74.16 31.42 74.16 33.19V41.98H69.41V23.58H74.16V26.75Z" fill="black"/>
<path d="M95.79 23.59H100.54V41.99H95.79V39.82C94.37 41.61 92.37 42.51 89.79 42.51C87.34 42.51 85.23 41.57 83.48 39.7C81.73 37.82 80.85 35.52 80.85 32.8C80.85 30.08 81.73 27.78 83.48 25.9C85.23 24.02 87.34 23.08 89.79 23.08C92.37 23.08 94.36 23.98 95.79 25.77V23.59ZM87.04 36.52C88 37.49 89.21 37.97 90.68 37.97C92.15 37.97 93.37 37.49 94.34 36.52C95.31 35.55 95.79 34.31 95.79 32.78C95.79 31.26 95.31 30.02 94.34 29.05C93.37 28.08 92.15 27.6 90.68 27.6C89.21 27.6 87.99 28.08 87.04 29.05C86.08 30.02 85.61 31.26 85.61 32.78C85.6 34.31 86.08 35.56 87.04 36.52Z" fill="black"/>
<path d="M115.37 28.15H111.21V35.8C111.21 36.44 111.37 36.9 111.69 37.2C112.01 37.49 112.48 37.66 113.09 37.7C113.7 37.74 114.46 37.73 115.37 37.68V41.99C112.11 42.36 109.81 42.05 108.47 41.07C107.13 40.09 106.47 38.33 106.47 35.81V28.16H103.27V23.6H106.47V19.88L111.22 18.45V23.6H115.38V28.15H115.37Z" fill="black"/>
<path d="M132.14 23.59H136.89V41.99H132.14V39.82C130.72 41.61 128.72 42.51 126.14 42.51C123.69 42.51 121.58 41.57 119.83 39.7C118.08 37.82 117.2 35.52 117.2 32.8C117.2 30.08 118.08 27.78 119.83 25.9C121.58 24.02 123.69 23.08 126.14 23.08C128.72 23.08 130.71 23.98 132.14 25.77V23.59ZM123.39 36.52C124.35 37.49 125.56 37.97 127.03 37.97C128.5 37.97 129.72 37.49 130.69 36.52C131.66 35.55 132.14 34.31 132.14 32.78C132.14 31.26 131.66 30.02 130.69 29.05C129.72 28.08 128.5 27.6 127.03 27.6C125.56 27.6 124.34 28.08 123.39 29.05C122.43 30.02 121.96 31.26 121.96 32.78C121.95 34.31 122.43 35.56 123.39 36.52Z" fill="black"/>
<path d="M145.21 34.74C145.85 37.05 147.58 38.2 150.4 38.2C152.22 38.2 153.59 37.59 154.52 36.36L158.35 38.57C156.53 41.2 153.86 42.51 150.33 42.51C147.29 42.51 144.85 41.59 143.01 39.75C141.17 37.91 140.25 35.59 140.25 32.8C140.25 30.03 141.16 27.72 142.97 25.86C144.78 24.01 147.11 23.08 149.96 23.08C152.66 23.08 154.88 24.01 156.64 25.88C158.39 27.74 159.27 30.05 159.27 32.8C159.27 33.41 159.21 34.06 159.09 34.75H145.21V34.74ZM145.13 31.06H154.51C154.24 29.81 153.68 28.88 152.84 28.26C152 27.64 151.03 27.34 149.95 27.34C148.67 27.34 147.62 27.67 146.79 28.32C145.96 28.97 145.4 29.88 145.13 31.06Z" fill="black"/>
<path d="M173.94 23.59H179.16L172.17 41.99H166.76L159.77 23.59H165L169.45 36.47L173.94 23.59Z" fill="black"/>
<path d="M183.07 41.55C182.46 42.16 181.72 42.47 180.86 42.47C180 42.47 179.27 42.16 178.65 41.55C178.04 40.94 177.73 40.2 177.73 39.34C177.73 38.48 178.04 37.75 178.65 37.13C179.26 36.52 180 36.21 180.86 36.21C181.72 36.21 182.45 36.52 183.07 37.13C183.68 37.74 183.99 38.48 183.99 39.34C183.99 40.2 183.68 40.93 183.07 41.55Z" fill="black"/>
<path d="M198.67 23.08C201.15 23.08 203.26 24.02 205.02 25.9C206.77 27.78 207.65 30.08 207.65 32.8C207.65 35.52 206.77 37.82 205.02 39.7C203.27 41.58 201.15 42.51 198.67 42.51C196.09 42.51 194.11 41.62 192.71 39.82V49.35H187.96V23.59H192.71V25.76C194.11 23.97 196.09 23.08 198.67 23.08ZM194.14 36.52C195.1 37.49 196.31 37.97 197.78 37.97C199.25 37.97 200.47 37.49 201.44 36.52C202.41 35.55 202.89 34.31 202.89 32.78C202.89 31.26 202.41 30.02 201.44 29.05C200.47 28.08 199.25 27.6 197.78 27.6C196.31 27.6 195.09 28.08 194.14 29.05C193.18 30.02 192.7 31.26 192.7 32.78C192.71 34.31 193.19 35.56 194.14 36.52Z" fill="black"/>
<path d="M215.74 26.75C216.18 25.57 216.91 24.69 217.93 24.1C218.95 23.51 220.08 23.22 221.33 23.22V28.52C219.88 28.35 218.59 28.64 217.45 29.4C216.31 30.16 215.74 31.42 215.74 33.19V41.98H211V23.58H215.75V26.75H215.74Z" fill="black"/>
<path d="M239.07 39.69C237.18 41.57 234.87 42.5 232.15 42.5C229.43 42.5 227.13 41.56 225.25 39.69C223.37 37.81 222.43 35.51 222.43 32.79C222.43 30.07 223.37 27.77 225.25 25.89C227.13 24.01 229.43 23.07 232.15 23.07C234.87 23.07 237.18 24.01 239.07 25.89C240.96 27.77 241.9 30.07 241.9 32.79C241.9 35.51 240.96 37.81 239.07 39.69ZM228.6 36.43C229.54 37.39 230.73 37.87 232.15 37.87C233.57 37.87 234.76 37.39 235.72 36.43C236.68 35.47 237.15 34.26 237.15 32.79C237.15 31.32 236.67 30.1 235.72 29.15C234.76 28.19 233.57 27.72 232.15 27.72C230.73 27.72 229.54 28.2 228.6 29.15C227.66 30.11 227.18 31.32 227.18 32.79C227.18 34.26 227.66 35.48 228.6 36.43Z" fill="black"/>
</g>
<defs>
<linearGradient id="paint0_linear_1_13" x1="20.4449" y1="5.6967" x2="68.4449" y2="68.335" gradientUnits="userSpaceOnUse">
<stop stop-color="#E6332A"/>
<stop offset="0.4811" stop-color="#E94E1B"/>
<stop offset="1" stop-color="#F39200"/>
</linearGradient>
<clipPath id="clip0_1_13">
<rect width="241.9" height="73.73" fill="white"/>
</clipPath>
</defs>
</svg>
