<svg width="88" height="87" viewBox="0 0 88 87" fill="none" xmlns="http://www.w3.org/2000/svg">
<path d="M43.9999 7.24292C64.0233 7.24292 80.2557 23.4751 80.2557 43.4985C80.2557 63.522 64.0233 79.754 43.9999 79.754C23.9765 79.754 7.74432 63.522 7.74432 43.4985C7.74432 23.4751 23.9765 7.24292 43.9999 7.24292ZM43.9999 12.6804C26.9796 12.6804 13.1818 26.4782 13.1818 43.4985C13.1818 60.519 26.9796 74.3165 43.9999 74.3165C61.0203 74.3165 74.8182 60.519 74.8182 43.4985C74.8182 26.4782 61.0203 12.6804 43.9999 12.6804ZM31.1737 53.588C34.2519 57.4947 38.9318 59.8168 43.9999 59.8168C49.0611 59.8168 53.7355 57.5012 56.8142 53.6032C57.7448 52.4247 59.4543 52.2239 60.6328 53.1548C61.8109 54.0854 62.0118 55.7949 61.0812 56.9734C56.9821 62.1633 50.7431 65.2543 43.9999 65.2543C37.2479 65.2543 31.0011 62.155 26.9027 56.9531C25.9734 55.7739 26.1762 54.0643 27.3556 53.1352C28.5351 52.2058 30.2445 52.4088 31.1737 53.588ZM33.1266 31.7196C35.6277 31.7196 37.6554 33.7471 37.6554 36.2483C37.6554 38.7494 35.6277 40.7769 33.1266 40.7769C30.6255 40.7769 28.5979 38.7494 28.5979 36.2483C28.5979 33.7471 30.6255 31.7196 33.1266 31.7196ZM54.8767 31.7196C57.3776 31.7196 59.4054 33.7471 59.4054 36.2483C59.4054 38.7494 57.3776 40.7769 54.8767 40.7769C52.3754 40.7769 50.348 38.7494 50.348 36.2483C50.348 33.7471 52.3754 31.7196 54.8767 31.7196Z" fill="#E94E1B"/>
</svg>
